<?xml version="1.0" encoding="utf-8"?>
<!-- Generator: Adobe Illustrator 22.1.0, SVG Export Plug-In . SVG Version: 6.00 Build 0)  -->
<svg version="1.1" id="Layer_1" xmlns="http://www.w3.org/2000/svg" xmlns:xlink="http://www.w3.org/1999/xlink" x="0px" y="0px"
	 viewBox="0 0 3057 2185" style="enable-background:new 0 0 3057 2185;" xml:space="preserve">
<style type="text/css">
	.st0{fill:#19212B;}
	.st1{fill:#FFFFFF;}
	.st2{fill:#5C48FA;}
	.st3{fill:#47A8F3;}
	.st4{fill:#4E3EB1;}
	.st5{clip-path:url(#SVGID_2_);}
	.st6{clip-path:url(#SVGID_4_);fill:#3CB4E5;}
</style>
<title>big dots dark copy</title>
<desc>Created with Sketch.</desc>
<rect y="-207" class="st0" width="3057" height="2546.4"/>
<g>
	<path class="st1" d="M845.8,862.9c0-8.2,6.6-14.8,14.8-14.8c8.2,0,14.8,6.6,14.8,14.8c0,8.2-6.6,14.8-14.8,14.8
		C852.4,877.8,845.8,871.1,845.8,862.9 M868.3,862.9c0-4.2-3.4-7.6-7.6-7.6c-4.2,0-7.6,3.4-7.6,7.6c0,4.2,3.4,7.6,7.6,7.6
		C864.9,870.6,868.3,867.2,868.3,862.9"/>
	<path class="st1" d="M843.1,495.5c0-8.8,7.1-15.9,15.9-15.9c8.8,0,15.9,7.1,15.9,15.9H843.1z"/>
	<path class="st1" d="M490.4,671c-0.1,0-0.1,0-0.2,0c-5.2,0-9.4,4.2-9.4,9.4c0,5.2,4.2,9.4,9.4,9.4c5.2,0,9.4-4.2,9.4-9.4
		c0-0.1,0-0.1,0-0.2h8.9c0,0.1,0,0.1,0,0.2c0,10.1-8.2,18.3-18.3,18.3c-10.1,0-18.3-8.2-18.3-18.3c0-10.1,8.2-18.3,18.3-18.3
		c0.1,0,0.1,0,0.2,0V671z"/>
	<path class="st1" d="M106.4,255.1c0-8.8,7.1-15.9,15.9-15.9c8.8,0,15.9,7.1,15.9,15.9H106.4z"/>
	<path class="st1" d="M484,251.9v-23.4c-12.9,0-23.4,10.5-23.4,23.4H484z"/>
	<path class="st1" d="M844.8,247.4c0-8.2,6.6-14.8,14.8-14.8c8.2,0,14.8,6.6,14.8,14.8c0,8.2-6.6,14.8-14.8,14.8
		C851.4,262.3,844.8,255.6,844.8,247.4 M867.3,247.4c0-4.2-3.4-7.6-7.6-7.6c-4.2,0-7.6,3.4-7.6,7.6c0,4.2,3.4,7.6,7.6,7.6
		C863.9,255.1,867.3,251.7,867.3,247.4"/>
	<path class="st1" d="M2796.1,1810.8c0-6.5,5.2-11.7,11.7-11.7c6.5,0,11.7,5.2,11.7,11.7c0,6.5-5.2,11.7-11.7,11.7
		C2801.4,1822.5,2796.1,1817.3,2796.1,1810.8"/>
	<path class="st1" d="M2731.5,1497.4c8,0,14.4,6.4,14.4,14.4c0,8-6.4,14.4-14.4,14.4c-8,0-14.4-6.4-14.4-14.4
		C2717.1,1503.8,2723.6,1497.4,2731.5,1497.4 M2731.5,1519.2c4.1,0,7.4-3.3,7.4-7.4c0-4.1-3.3-7.4-7.4-7.4c-4.1,0-7.4,3.3-7.4,7.4
		C2724.1,1515.9,2727.4,1519.2,2731.5,1519.2"/>
	<path class="st2" d="M2281,1509.5h-22.7c0-12.5,10.2-22.7,22.7-22.7V1509.5z"/>
	<path class="st1" d="M2504,1493.2c-8.5,0-15.4,6.9-15.4,15.4c0,8.5,6.9,15.4,15.4,15.4V1493.2z"/>
	<path class="st1" d="M2378.1,907.4c0-3.2,2.6-5.8,5.8-5.8c3.2,0,5.8,2.6,5.8,5.8c0,3.2-2.6,5.8-5.8,5.8
		C2380.7,913.2,2378.1,910.6,2378.1,907.4"/>
	<path class="st1" d="M2504,2097.1c-8.5,0-15.4,6.9-15.4,15.4c0,8.5,6.9,15.4,15.4,15.4V2097.1z"/>
	<path class="st1" d="M2280.2,1965.1h-22.7c0-12.5,10.2-22.7,22.7-22.7V1965.1z"/>
	<path class="st3" d="M3057,540.5c-150.3-6.5-270.2-130.4-270.2-282.3c0-2.1,0.6-4.1,0.6-6.2h-266c0,2.1-0.6,4.1-0.6,6.2
		c0,298.9,238.9,541.9,536.2,548.5V540.5z"/>
	<path class="st4" d="M362.2,2185c0,55.7-13.7,108.2-38,154.3h332.1c12.1-49.4,18.6-101.1,18.6-154.3
		c0-356.1-288.7-644.9-644.8-644.9c-10.1,0-20.1,0.2-30,0.7v313.4c9.9-0.9,19.9-1.4,30-1.4C213.5,1852.9,362.2,2001.6,362.2,2185z"
		/>
</g>
<g>
	<defs>
		<rect id="SVGID_1_" y="242.9" width="3057" height="1719.6"/>
	</defs>
	<clipPath id="SVGID_2_">
		<use xlink:href="#SVGID_1_"  style="overflow:visible;"/>
	</clipPath>
	<g class="st5">
		<defs>
			<rect id="SVGID_3_" y="-1648.6" width="3057" height="1719.6"/>
		</defs>
		<clipPath id="SVGID_4_">
			<use xlink:href="#SVGID_3_"  style="overflow:visible;"/>
		</clipPath>
		<path class="st6" d="M988.8,70.9c0,139.5-113.1,252.6-252.6,252.6c-139.5,0-252.6-113.1-252.6-252.6
			c0-139.5,113.1-252.6,252.6-252.6C875.7-181.6,988.8-68.6,988.8,70.9 M245.9,70.9c0,270.8,219.5,490.4,490.4,490.4
			c270.8,0,490.3-219.5,490.3-490.4S1007-419.4,736.2-419.4C465.4-419.4,245.9-199.9,245.9,70.9"/>
	</g>
</g>
</svg>
